<?xml version="1.0" encoding="UTF-8"?>
<svg id="Calque_1" data-name="Calque 1" xmlns="http://www.w3.org/2000/svg" viewBox="0 0 1500 1500">
  <defs>
    <style>
      .cls-1 {
        fill: #fff;
      }
    </style>
  </defs>
  <g>
    <rect class="cls-1" x="107.75" y="107.75" width="1284.5" height="1284.5" rx="206.42" ry="206.42"/>
    <path d="M1185.83,1393.35c-291.15-.13-587.1,2.28-878.45,5.25-19.28-.35-38.54-3.41-57.05-8.89-89.15-26.27-152.6-110.88-153.07-203.88-3.14-275.13-7.74-595.25-8.56-868.91-.01-6.55,.13-13.6,.66-20.12,4.63-71.71,46.38-139.29,107.95-176.2,11.66-7.09,24-13.07,36.76-17.92,25.53-9.7,52.85-14.67,80.11-14.72,199.32,.03,398.64,.91,597.96,2.6,72.84,.74,199.08,1.8,270.95,2.73,4.66,.11,10.11,.22,14.78,.5,85.26,4.85,162.92,62.84,191.63,143.24,9.02,24.71,13.41,51,13.17,77.14-3.82,235.53-5.95,514.01-7.86,747.45-.55,33.56-.17,97.56-.89,130.86-.06,1.57-.06,3.14-.17,4.71l-.37,4.7-.37,4.7c-.15,1.56-.39,3.12-.58,4.67-12.23,102.9-102.87,182.9-206.58,182.1h0Zm0-2.2c102.56,.51,191.84-78.24,203.6-180.26,.38-2,.73-6.99,.91-9.24,.19-3.02,.52-6.36,.5-9.27,.27-33.12,.09-96.84,.11-130.76-.25-95.7-.15-639.68-.34-747.45,.02-49.49-18.42-98.7-51.47-135.59-34.74-39.43-85.04-64.73-137.52-68.37-16.43-1.36-48.18-.35-65.25-.64-152.62,.09-661.5,.29-822.19,.38-49.37-.05-98.48,18.29-135.31,51.24-39.39,34.65-64.7,84.84-68.38,137.23-1.37,16.41-.39,48.17-.7,65.23-.05,152.62-.32,661.5-.38,822.19,.06,24.72,4.49,49.42,13.23,72.55,21.61,58.08,71.13,104.68,130.29,123.02,16.2,5.09,33.13,8,50.07,9.03,190.83,.98,685.19,.33,882.84,.72h0Z"/>
  </g>
  <path d="M694.54,1242.93c-65.2,2.13-117.3-11.16-156.26-39.86-38.98-28.71-66.8-66.44-83.44-113.21-16.65-46.77-22.49-99.92-17.54-159.45,4.97-59.52,18.76-119.4,41.46-179.65,22.66-60.22,49.78-116.75,81.32-169.55,31.52-52.78,64.13-100.27,97.8-142.44,33.65-42.16,66.6-78.13,98.86-107.9,32.24-29.77,60.76-51.02,85.57-63.78,18.43-9.21,37.56-12.23,57.4-9.04,19.83,3.19,38.96,9.57,57.4,19.14,18.42,9.57,35.6,20.91,51.55,34.01,15.95,13.12,28.87,24.63,38.8,34.55,7.79,7.8,12.93,16.65,15.42,26.57,2.47,9.93,1.94,20.2-1.6,30.83-9.21,24.81-20.56,45.01-34.01,60.59-13.47,15.6-26.58,28.01-39.33,37.2-14.88,10.63-30.48,18.44-46.77,23.39-14.89,4.97-24.81,6.38-29.77,4.25-4.97-2.13-7.09-5.31-6.38-9.57,0-4.95,2.83-11.33,8.51-19.13,16.29-28.34,27.64-52.44,34.02-72.28,6.37-19.83,10.26-36.49,11.69-49.96,1.41-14.88,.35-27.64-3.19-38.26-23.39-11.33-46.61-13.82-69.62-7.44-23.04,6.37-45.18,18.78-66.44,37.2-21.26,18.43-41.64,41.29-61.12,68.56-19.5,27.29-37.74,55.81-54.74,85.58-38.98,70.16-76.18,154.13-111.61,251.93-17.01,47.48-28.7,89.47-35.08,125.96-6.37,36.51-9.03,68.56-7.97,96.2,1.07,27.64,4.95,51.2,11.69,70.69,6.73,19.5,15.05,35.61,24.99,48.36,22.67,30.46,53.84,49.24,93.54,56.34,17.01,2.83,32.24,2.48,45.7-1.06,13.46-3.55,26.58-9.22,39.33-17.01,.7,0,1.41-.37,2.13-1.07,.7-1.43,1.41-2.31,2.13-2.66,.7-.36,1.41-.89,2.13-1.59,.7,0,1.76-.71,3.19-2.13,1.41-.71,2.48-1.43,3.19-2.13h1.06c0-.71,.35-1.43,1.07-2.12v-2.13c1.41,0,2.47-.37,3.19-1.07,0-.71,.7-1.06,2.13-1.06v-1.07l1.06-1.06c1.41-1.43,2.13-2.84,2.13-4.25,.7,0,1.07-.37,1.07-1.06l1.06-1.07c.7-.71,1.07-1.43,1.07-2.13,.69-2.13,2.12-3.55,4.25-4.25-.71,0-1.06-.18-1.06-.53,0-.37,.35-.53,1.06-.53h-1.06v-1.07l1.06-1.06v-1.07c0-.71,.35-1.06,1.07-1.06h2.13v-2.13h-1.07v-2.13h1.07l1.06,1.07v1.06h1.07c-.71-.71-1.07-1.77-1.07-3.19h2.13v1.06h0v-1.06c-.71,0-1.06-.37-1.06-1.07h-1.07c2.13-.71,3.19-2.13,3.19-4.25l3.19-3.19c.7-1.43,1.06-2.31,1.06-2.66s.35-1.24,1.07-2.65c2.13-2.13,3.54-3.91,4.25-5.31,.69,0,1.06-.35,1.06-1.07,.7-1.41,1.76-2.13,3.19-2.13l1.06,1.07c0-.7,.35-1.07,1.06-1.07-.71,0-1.06-.35-1.06-1.06-.71,0-1.06,.36-1.06,1.06l-1.07-1.06v-3.19c-.71-.69-1.06-1.76-1.06-3.19,0-.7,.69-1.76,2.13-3.19,0-.7,.69-1.77,2.12-3.19v-2.13l2.13-1.06c0-1.41,.7-2.83,2.13-4.25,0-.7,.35-1.41,1.07-2.13h1.06c-.71-1.41-.71-3.19,0-5.31,.7,0,1.41-.35,2.13-1.07h1.07c-1.43-1.41-1.78-3.19-1.07-5.31l1.07-3.19h1.06l1.06-1.07,1.07-2.13v-3.19c0-.7,.7-1.06,2.13-1.06,0-.7-.19-1.23-.53-1.6-.37-.35-.53-1.23-.53-2.65v-1.07h1.07v-1.06h1.06c-.71,0-1.06-.35-1.06-1.07,0-1.41,.7-2.13,2.13-2.13,0-.69,.35-1.41,1.06-2.12v-1.07c-.71,0-1.06,.37-1.06,1.07l-1.07-1.07,1.07-1.06c0-.7-.19-1.23-.53-1.6-.37-.35-.53-.88-.53-1.59,.7-1.41,.88-2.13,.53-2.13-.37,0-.18-.35,.53-1.06h3.19c0-.7-.37-1.07-1.06-1.07h-1.07l-1.06-1.06,1.06-1.06h1.07c.69,0,1.41-.35,2.13-1.07,1.41,0,2.47-.35,3.19-1.06h-1.07v-1.07l2.13-2.13c0-.7,.35-1.06,1.07-1.06,.7-.7,.7-1.07,0-1.07h-2.13c.7-.69,1.06-1.41,1.06-2.13v-2.12l1.07-1.07h1.06v-2.13h-1.06c0-1.41,.35-2.47,1.06-3.19l1.07-2.13v-1.07c-.71,0-1.07-.35-1.07-1.06v-2.13c.7-.7,1.07-1.41,1.07-2.13v-1.06h2.13c-.71-.7-.71-1.41,0-2.13-2.84-1.41-3.91-2.83-3.19-4.25h2.13c-.71-.7-1.06-1.41-1.06-2.13l1.06-1.06v-3.19h1.07v1.07h1.06l-1.06-1.07,1.06-1.06,1.07-1.07h-2.13c1.41-1.41,2.29-2.82,2.65-4.25,.35-1.41,.88-2.82,1.59-4.25,0-3.54,1.07-6.01,3.19-7.45v-1.06c0-.7-.19-1.06-.53-1.06-.37,0-.53-.35-.53-1.07h1.07c0-.7-.37-1.41-1.07-2.13v-1.06l-1.06-2.13h1.06l1.07,1.06c.7,0,1.06-.35,1.06-1.06l-1.06-1.07h2.13v-3.19c-.71,0-1.07-1.06-1.07-3.19l-1.06-1.07v-1.06h1.06v-1.07l1.07-1.06h1.06c0-.7-.36-1.07-1.06-1.07h-1.07c-.71,0-1.06-.35-1.06-1.06-.71,0-.37-.7,1.06-2.13v-1.06h1.07v-2.13l1.06-1.07c0-.7-.18-1.23-.53-1.59-.36-.35-.53-.88-.53-1.59,.7-.7,1.06-1.76,1.06-3.19s.35-2.13,1.07-2.13c0-1.41,.35-2.12,1.06-2.12v-4.25h-1.06v-5.32h-1.07v-6.37l3.19-3.19h-1.07c0-.69,.35-1.41,1.07-2.13v-2.12h1.06v-3.19c0-.7,.7-1.41,2.13-2.13-.71,0-1.25,.19-1.59,.53-.37,.37-.19,.53,.53,.53l1.07-2.13v-7.44l-1.07-3.19,1.07-1.06v-1.07c0-1.41,.35-2.47,1.06-3.19v-2.13h1.07v1.07c.7-.7,1.41-1.07,2.13-1.07l-1.07-1.06,1.07-1.07v-1.06c-.71-.7-.71-1.41,0-2.13l-2.13,1.06h0v-1.06l-1.07,1.06,1.07-1.06v-1.07h-1.07c.7-.69,1.07-1.41,1.07-2.13s.17-1.06,.53-1.06c.35,0,.53-.35,.53-1.06v-3.19h-1.06l1.06-1.06v-1.07h2.13v1.07c0,.71,.17,1.24,.53,1.59,.35,.37,.53,.89,.53,1.59v1.07l1.06-1.07h1.07c.69,0,1.06,.37,1.06,1.07v2.12c-.71,0-1.06,.37-1.06,1.07v0h-1.07v4.25h1.07l1.06-1.07c.7,0,1.07,.19,1.07,.53,0,.37,.35,.53,1.06,.53v1.06c0,1.43-.18,2.49-.53,3.19-.36,.71-.53,1.77-.53,3.19,0,2.13-.72,3.9-2.13,5.31h-1.07v-1.06h-1.06c0-.7,.35-1.41,1.06-2.13l1.07-2.13c-.71,0-1.43-.35-2.13-1.07l-1.07,1.07-1.06,1.06c0,1.43,.35,2.13,1.06,2.13,0,.71,.17,1.43,.53,2.13,.35,.71,.53,1.78,.53,3.19h-1.07v1.06c1.41,3.55,2.83,5.31,4.25,5.31,0-.69-.18-1.23-.53-1.59-.36-.35-.53-.88-.53-1.59s.35-1.07,1.06-1.07h2.13v2.13c0,1.43,.7,2.13,2.13,2.13h-2.13l-1.06,1.07h-1.07v1.06h-1.06v3.19c-.71,.71-1.07,1.77-1.07,3.19v1.06h-2.13l3.19,3.19h1.06v2.13l-1.06,1.06h1.06v1.07l1.07,1.06c0,.71-.37,1.06-1.07,1.06h2.13c0,.72-.37,1.07-1.06,1.07h-1.07c-1.43,0-2.49-.35-3.19-1.07h-2.13l-2.13,2.13h0l-1.07,2.13h3.19c.7,.71,1.76,.9,3.19,.53,1.41-.35,2.47-.53,3.19-.53h2.12c-.71,.71-1.43,1.07-2.12,1.07,0,.71-.37,1.06-1.07,1.06,0,.71-.37,1.07-1.06,1.07,0,.71,.17,1.06,.53,1.06s.53,.37,.53,1.07l1.07,1.06c0,.71-.37,1.06-1.07,1.06h-1.06c0,.72,.17,1.07,.53,1.07s.53,.37,.53,1.06h-1.06c-.71,0-1.43-.35-2.13-1.06h-1.07c0,3.55,.7,5.31,2.13,5.31v-4.25h1.07l2.13,2.13v2.13l-1.07,4.25h-1.06v-1.06l-1.07,1.06h-2.13c-.71-1.41-2.84-3.89-6.38-7.44v1.06l-2.12,1.07c1.41,2.84,4.6,4.97,9.57,6.38v1.06l-1.07,1.06h-2.13l-2.13-1.06c0,1.43,.35,2.13,1.07,2.13s1.06,.37,1.06,1.06l1.07,2.13h1.06v4.25h-3.19l2.13,3.19h-3.19v-1.06c0,1.43,.7,2.13,2.13,2.13h1.07l-1.07,1.06c-.71,.71-1.77,1.07-3.19,1.07h3.19v3.19h-1.06c-.71,.71-.37,1.43,1.06,2.13l-5.31-2.13h3.19c0-1.41-.71-2.13-2.13-2.13h-4.25l7.44,6.38h-3.19c1.41,.71,1.95,1.78,1.6,3.19-.37,1.43-.9,2.84-1.6,4.25v2.13h-1.06v1.07c-.71,0-.71,.36,0,1.06h-1.06c0,.71,.17,1.06,.53,1.06s.53,.37,.53,1.07c.7,0,1.06,.37,1.06,1.06s-.36,1.07-1.06,1.07h-1.06c-1.43,1.43-1.43,2.13,0,2.13h1.06v1.06c-.71,.71-1.43,1.07-2.13,1.07l1.07,4.25h-3.19c.7-.69,.7-1.76,0-3.19v-2.13h-2.13c0,1.43,.35,2.66,1.07,3.72,.7,1.07,1.41,2.31,2.13,3.72l2.13,2.13-3.19,3.19h-1.06v1.06h-1.07c0,.71,.35,1.07,1.07,1.07h-2.13l-2.13-1.07,2.13,2.13h1.06l1.07-1.06c0,.71-.37,1.06-1.07,1.06h1.07l-2.13,2.13c1.41,1.43,1.76,2.84,1.06,4.25l1.07,2.13h-1.07l-1.06-1.07v2.13l-1.07,1.07c-.71,0-1.06,.36-1.06,1.06v1.07c0,.71,.35,1.06,1.06,1.06s1.07,.37,1.07,1.06h-1.07l2.13,1.07v1.06h-1.06l-1.07-1.06v1.06c-.71,1.43-.89,2.31-.53,2.66,.35,.37,.53,.89,.53,1.59-.71,.71-1.06,1.43-1.06,2.13h2.13v2.13c-2.13,0-3.19,.37-3.19,1.06l1.07,1.07v2.13h-1.07v-1.07l-1.06,1.07v1.06h-1.06c0,1.43-.37,2.49-1.07,3.19h1.07l2.12-1.07,1.07-1.06c7.79-18.42,14.52-37.02,20.2-55.81,5.66-18.76,10.26-35.6,13.82-50.49,3.53-17.7,6.73-34.01,9.57-48.9,1.41-7.07,6.54-15.04,15.41-23.92,8.85-8.85,18.6-17.35,29.23-25.51,10.63-8.14,21.08-15.23,31.36-21.26,10.27-6.01,17.54-9.73,21.79-11.16,9.2-2.83,15.23-2.13,18.07,2.13,1.41,2.13,2.13,4.61,2.13,7.44,.7,12.76-.71,32.43-4.25,59-3.55,26.57-10.09,55.99-19.67,88.23-9.57,32.25-22.32,65.37-38.26,99.39-15.95,34.02-35.97,65.19-60.06,93.54-24.1,28.34-52.62,51.9-85.57,70.69-32.96,18.76-71.06,28.86-114.28,30.29Zm42.52-60.59c-.71,.7-1.06,1.41-1.06,2.13v-1.06l1.06-1.07Zm0-2.13c.7,1.41,.7,2.48,0,3.19,1.41,0,1.77-1.07,1.07-3.19h-1.07Zm3.19,2.13l-1.07,2.13c.7,0,1.07-.71,1.07-2.13Zm8.5-1.06c.7,0,.88,.35,.53,1.06-.37,.7-.18,.7,.53,0-.71,0-1.07-.36-1.07-1.06Zm7.45,11.69c0,.7-.37,1.41-1.07,2.13,1.41-.71,2.47-1.07,3.19-1.07s.7-.71,0-2.13l-2.12,1.07Zm0,5.31v0Zm3.19,0c-.71,0-1.07,.35-1.07,1.07s.35,1.06,1.07,1.06v-2.13Zm2.13-1.06c1.41-.71,1.76-2.13,1.06-4.25-.71,0-1.06,.35-1.06,1.06v1.07c0-.71-.19-.9-.53-.53-.37,.35-.53,.88-.53,1.59l1.07-1.06v2.13Zm1.06-35.08c.7,.69,.35,1.06-1.06,1.06,2.13,2.83,3.19,3.36,3.19,1.59s-.71-2.65-2.13-2.65Zm-1.06,39.33v0Zm5.31-34.02c-1.43,.7-2.13,2.13-2.13,4.25,.7-.71,1.59-1.25,2.66-1.59,1.06-.37,.88-1.25-.53-2.66Zm0,28.7c-1.43,0-1.77,.7-1.06,2.13,0-.71,.17-1.06,.53-1.06s.53-.37,.53-1.07Zm1.07-27.64c0,.7,.35,1.07,1.06,1.07l-1.06-1.07Zm3.19,14.89c-2.13,1.41-2.84,3.19-2.13,5.31,1.41,1.41,2.13,1.23,2.13-.53v-4.78Zm3.19-21.26v0Zm2.13,1.06c-.71,0-.71,.35,0,1.07v-1.07Zm5.31,21.26c0,1.41,.7,2.13,2.13,2.13,0-.71-.71-1.77-2.13-3.19v1.06Zm1.07-28.7c.7,.7,.7,1.06,0,1.06v-1.06Zm4.25,27.64c-.71-1.43-1.59-2.49-2.66-3.19-1.06-.71-.89,0,.53,2.13l1.06,1.07c-.71,0-.71,.7,0,2.13,0-.71,.17-1.07,.53-1.07,.35,0,.53-.36,.53-1.06Zm-3.19-28.7c.7,.69,.7,1.06,0,1.06v-1.06Zm1.07,0l1.06,1.06c0-.71-.36-1.06-1.06-1.06Zm6.38,25.5c-3.55-1.43-4.97-1.43-4.25,0,1.41,1.41,2.13,1.95,2.13,1.6,0-.37,.35,.17,1.06,1.59,.7-.71,1.41-1.07,2.13-1.07s.35-.71-1.06-2.13Zm5.31-37.2c0,1.41-1.07,2.47-3.19,3.19,2.13,2.83,3.19,3.19,3.19,1.06s1.06-2.49,3.19-1.06c-.71-1.43-.36-2.31,1.07-2.66,1.41-.36,1.41-1.59,0-3.72-1.43,.7-2.84,1.76-4.25,3.19Zm8.5,26.57c-2.12-.71-4.61-.37-7.44,1.06l-2.13,2.13c0,1.41-.71,2.13-2.13,2.13,.7,.7,1.07,1.41,1.07,2.13,2.83-.71,6.38-3.19,10.63-7.44Zm-7.44-1.07c.7,.7,.7,1.07,0,1.07v-1.07Zm5.32-29.76v0Zm5.31,22.32v1.07c1.41,1.41,2.29,2.13,2.66,2.13h2.65c-1.43-.71-1.43-1.78,0-3.19,1.41,0,1.76-1.06,1.07-3.19-1.43,1.41-3.19,2.13-5.32,2.13h-1.06v1.06Zm3.19-31.88c0,.69,.35,1.06,1.07,1.06l-1.07-1.06Zm1.07,29.76l-1.07-1.06c.7,0,.88,.35,.53,1.06-.37,.7-.18,.7,.53,0Zm1.06-34.01c-.71,1.41-.71,2.13,0,2.13s.35,.35-1.06,1.06c2.13,1.41,3.19,1.59,3.19,.53s-.71-2.31-2.13-3.72Zm1.07,28.7c1.41,.7,1.76,.35,1.06-1.06,0,.69-.37,.88-1.06,.53-.71-.36-.71-.18,0,.53Zm6.37-27.64l-5.31-3.19c.7,2.13,2.47,3.19,5.31,3.19Zm42.53-25.51c-.71-1.43-.19-2.31,1.59-2.65,1.76-.37,.88-1.25-2.66-2.66-.71,1.41-2.13,3.19-4.25,5.31l-2.13,4.25-2.13,4.25c-.71,1.41-2.49,2.83-5.31,4.25,0,.7-.18,1.41-.53,2.13-.36,.69-.53,1.41-.53,2.13-.71,.69-1.25,1.41-1.59,2.12-.37,.7-1.25,1.77-2.66,3.19-1.43,1.41-2.66,3.19-3.72,5.31-1.07,2.13-1.59,4.25-1.59,6.38-3.55,.7-5.68,2.13-6.38,4.25-.71,2.13-2.49,3.53-5.31,4.25,.69,0,1.06-.37,1.06-1.07,.7-.71,.7-1.43,0-2.13-1.43-.71-2.31-.71-2.66,0-.36,.7,.17,1.76,1.6,3.19-1.43,.69-1.96,1.59-1.6,2.65,.35,1.07-.18,1.95-1.59,2.66-.71-.71-1.43-.71-2.13,0h2.13l-2.13,3.19-2.13,2.13c-1.43,2.83-2.12,4.95-2.12,6.38,2.82-1.43,4.6-2.49,5.31-3.19,0-.71,.35-1.43,1.06-2.12,.7-.72,1.07-1.25,1.07-1.6s.35-.89,1.06-1.59c.7-.71,1.23-1.43,1.59-2.13,.35-.71,.88-1.43,1.6-2.13,.69,0,1.06-.18,1.06-.53,0-.37,.35-.53,1.06-.53l1.07-1.07c1.41-1.43,2.47-2.12,3.19-2.12,.7-2.84,1.76-5.15,3.19-6.91,1.41-1.77,2.82-3.37,4.25-4.78,2.13-2.13,3.19-3.91,3.19-5.32,.7-.71,1.06-1.77,1.06-3.19,.7-.71,1.07-1.78,1.07-3.19,2.13,.7,3.53,.35,4.25-1.06-.72-1.43-.53-2.13,.53-2.13s1.23-.71,.53-2.13c.7,0,1.76-.71,3.19-2.13,2.13-.71,3.19-1.77,3.19-3.19,.7-1.43,1.23-2.84,1.59-4.25,.35-1.43,1.23-2.84,2.66-4.25Zm-42.53,20.2h-2.65c-1.07,0-.9,.7,.53,2.13,1.41-.71,2.83-.71,4.25,0,1.41,.7,.7,0-2.13-2.13,1.41,0,1.41-.71,0-2.13,2.13,1.41,3.19,1.59,3.19,.53s.69-.9,2.13,.53c.69-.71,1.06-2.12,1.06-4.25,2.83,0,4.25-2.13,4.25-6.38-2.13-.71-3.19-.37-3.19,1.06-1.43,1.41-2.49,2.13-3.19,2.13,0,2.13-1.43,2.48-4.25,1.07,2.83,2.13,3.36,3.19,1.6,3.19s-2.31,.7-1.6,2.13c-1.43-.71-1.96-.89-1.59-.53,.35,.35,.88,.53,1.59,.53,0,1.41-.71,1.76-2.13,1.06-1.43-.71-.71-.36,2.13,1.07Zm-1.06,28.7v0Zm5.31-24.45c.7,0,.88-.19,.53-.53-.37-.37-.9-.53-1.59-.53l1.06,1.07Zm1.07-20.2l1.06,1.07c.7,0,.88-.19,.53-.53-.37-.37-.9-.53-1.59-.53Zm4.25-7.44c0,1.41-.36,1.94-1.06,1.59-.71-.37-1.43-.18-2.13,.53,3.54,2.83,4.42,4.42,2.66,4.78-1.78,.35-1.59,1.6,.53,3.72,3.54,1.41,5.13,1.6,4.79,.53-.37-1.06-.18-2.31,.53-3.72-1.43-1.43-2.31-1.96-2.66-1.59-.37,.35-1.25,.17-2.66-.53,1.41-1.43,1.41-3.19,0-5.31Zm0,18.07l1.07,1.06c.7,0,.88-.18,.53-.53-.37-.36-.9-.53-1.6-.53Zm3.19,1.06l-1.07-1.06,1.07,1.06Zm1.06-19.13l-1.06-1.07v1.07h1.06Zm-1.06,15.95l1.06,1.06-1.06-1.06Zm1.06-13.82c-1.43,1.41-1.06,2.83,1.07,4.25l2.13-2.13,2.13-4.25h-2.13c0,.7-1.07,1.41-3.19,2.13Zm0,29.77c0,.69,.35,1.06,1.07,1.06s.35-.71-1.07-2.13v1.07Zm3.19-39.33c.69,1.43,.69,2.31,0,2.65-.71,.37,.35,1.6,3.19,3.72-.71-1.41-.53-1.59,.53-.53s1.94,1.23,2.65,.53c-3.55-1.41-4.08-2.12-1.59-2.12s2.29-.7-.53-2.13l-4.25-2.13Zm2.13,30.83v2.13c1.41,0,1.41-.71,0-2.13Zm2.12-19.13c.7,0,.89-.19,.53-.53-.37-.37-.89-.53-1.59-.53l1.06,1.07Zm1.07-12.76c-1.43,0-1.43,.37,0,1.07,1.41,.71,1.41,.36,0-1.07Zm0-30.83c-.71,0-1.07,.37-1.07,1.06v-1.06h1.07Zm2.13-11.69c0,.71,.17,1.06,.53,1.06,.35,0,.53,.37,.53,1.07h1.07c1.41-2.83,3.53-7.79,6.37-14.88l-2.12,1.06v-1.06h-1.07c0,1.43,.35,2.12,1.07,2.12v1.07l-2.13,1.06-1.07-1.06h-1.06l2.13,2.13-2.13,3.19v3.19l-1.07-1.07v0c0,.71-.36,1.07-1.06,1.07v1.06Zm0,4.25c.7,0,.7,.37,0,1.06l1.06-1.06h-1.06Zm1.06,35.08c-.71,0-1.06,.37-1.06,1.06s.35,1.07,1.06,1.07v-2.13Zm0,8.51c.7,0,.88-.17,.53-.53-.37-.35-.89-.53-1.59-.53l1.06,1.07Zm7.44-20.2c-1.43,0-2.84,.53-4.25,1.59-1.43,1.07-.71,2.31,2.13,3.72v1.07c0-.7-.37-1.07-1.07-1.07-.71,1.43-1.43,1.96-2.13,1.59-.71-.35-.36,.19,1.07,1.6,.69,0,1.23,.18,1.59,.53,.35,.37,1.23,.53,2.65,.53,.7-.7,.53-1.23-.53-1.59-1.07-.35-1.59-.88-1.59-1.59,.69,0,.69-.35,0-1.07,2.12-.7,3.53-2.13,4.25-4.25,1.41-.69,2.13-2.13,2.13-4.25,0-.7,.35-.89,1.07-.53,.7,.36,1.06,.18,1.06-.53,0-1.41-.18-2.66-.53-3.72-.36-1.06,.89-1.23,3.73-.53-1.43-1.41-1.78-2.47-1.07-3.19,0,1.43,1.07,2.13,3.19,2.13,.7-.7-.71-2.13-4.25-4.25l1.06,2.13h-2.13c-2.13,.71-2.84,1.77-2.13,3.19,.7,1.43-1.06,1.78-5.31,1.07,2.83,1.43,3.19,2.49,1.06,3.19-2.12,.71-2.12,2.13,0,4.25Zm-3.19-5.31l-2.13-1.07,2.13,1.07Zm-1.06,34.01c.69,0,.88-.18,.53-.53s-.89-.53-1.59-.53l1.07,1.06Zm3.19-107.36v-1.06h1.06v-1.07h-1.06v2.13Zm1.06-1.06l1.07-1.07h-1.07v1.07Zm4.25,99.92c.7,0,.88-.17,.53-.53-.37-.35-.89-.53-1.59-.53l1.06,1.07Zm0-32.96c-.71,0-.89,.19-.53,.53,.35,.37,.88,.53,1.59,.53l-1.07-1.07Zm1.07-120.11v-2.13h-1.07v2.13h1.07Zm1.06,135c.7,0,.88-.17,.53-.53-.37-.35-.89-.53-1.59-.53l1.06,1.07Zm1.07-8.51c-.71,0-.9,.18-.53,.53,.35,.37,.88,.53,1.59,.53s.88-.17,.53-.53c-.37-.35-.9-.53-1.59-.53Zm3.19-11.69c-1.43,0-2.13,.37-2.13,1.07-.71,0,.35,.71,3.19,2.12,.7-.69,1.6-.88,2.66-.53,1.07,.36,.88-.17-.53-1.59l-3.19-1.07Zm25.51-1.06c1.41-3.54,1.76-6.38,1.06-8.51h6.38c-1.43-.7-2.31-1.41-2.65-2.13-.37-.7-1.25-1.41-2.66-2.13-2.13,2.13-3.19,4.97-3.19,8.51l-2.13-1.07c0,2.84-.37,4.62-1.07,5.32,0,1.43-.18,2.65-.53,3.72-.36,1.06-.18,2.31,.53,3.72-1.43-.7-2.31-.88-2.65-.53-.37,.37-1.25,.53-2.66,.53-.71,.71-1.07,2.49-1.07,5.31s-1.06,4.62-3.19,5.31c-.71,.71-.71,1.25,0,1.6,.7,.36,.35,.89-1.06,1.59-1.43,0-2.13,.71-2.13,2.13-.71,.71-1.07,1.43-1.07,2.13s-.36,1.06-1.06,1.06c0,.71-.19,1.25-.53,1.59-.37,.37-.53,1.25-.53,2.66-.71,0-1.43,1.43-2.13,4.25-1.43,1.43-1.77,2.13-1.06,2.13,0,1.43-.53,2.31-1.59,2.65-1.07,.37-.19,1.23,2.65,2.66,1.41,0,2.29-.71,2.66-2.13,.35-1.41,.17-2.47-.53-3.19,1.41,0,3.54-2.13,6.38-6.38,2.13-3.54,3.54-5.67,4.25-6.38-1.43-1.41-1.59-2.65-.53-3.72,1.07-1.06,2.29-1.95,3.72-2.66v-3.19c0-1.41,1.76-2.13,5.32-2.13-2.84-2.13-3.56-3.35-2.13-3.72,1.41-.35,2.47-.88,3.19-1.59-.71-1.41-.89-2.66-.53-3.72,.35-1.07,.53-2.29,.53-3.72Zm-18.07-23.39c-2.13-1.41-3.37-1.77-3.72-1.07-.37,.71,.17,1.43,1.59,2.13h1.07l1.06-1.06Zm-2.13,5.31c.7,0,.88-.17,.53-.53-.37-.35-.89-.53-1.59-.53l1.06,1.07Zm4.25-7.44c.7,1.43,.7,2.84,0,4.25-.71,1.43-1.43,2.84-2.13,4.25-2.13,3.55-2.49,7.09-1.06,10.63,2.82-1.41,4.25-3.01,4.25-4.79s1.06-3.35,3.19-4.78c-1.43-1.41-2.13-2.47-2.13-3.19,2.83,1.43,4.42,1.6,4.79,.53,.35-1.06-.53-1.94-2.66-2.65-.71-1.41-.18-1.95,1.59-1.6,1.76,.37,2.29-.17,1.59-1.59-1.43,0-2.49-.35-3.19-1.06h1.06c-.71-1.41-.18-1.76,1.6-1.07,1.76,.71,2.65,.71,2.65,0-2.84-1.41-3.19-2.13-1.06-2.13s3.19-.35,3.19-1.06c-2.13-1.41-2.84-2.29-2.13-2.66,.7-.35,1.07-.88,1.07-1.59,.69-.7,.69-1.23,0-1.59-.71-.35-1.07-.88-1.07-1.59h4.25v-6.38c0-2.13,1.41-3.19,4.25-3.19-2.13-.7-2.84-1.6-2.13-2.66,.7-1.06,2.13-1.95,4.25-2.66-.71-1.41-1.43-3.01-2.13-4.78-.71-1.76,.35-2.66,3.19-2.66-1.43,0-2.49-.35-3.19-1.06-.71-.7-1.78-1.07-3.19-1.07,0,.71-.37,1.43-1.07,2.13-1.43,1.43-1.43,2.49,0,3.19-1.43,.71-1.77,1.43-1.06,2.12,.69,.71,.35,1.07-1.07,1.07v3.19c-1.43,0-2.13,.37-2.13,1.07s-1.06,1.06-3.19,1.06c1.41,.71,2.29,1.43,2.66,2.13,.35,.71,.88,1.43,1.59,2.13h-3.19c0,1.43-.36,2.49-1.06,3.19-.71,.71,0,1.43,2.13,2.13-3.55,2.84-4.62,5.32-3.19,7.44l-3.19-1.06c2.83,2.84,2.13,4.97-2.13,6.38Zm1.07-7.44l-2.13-1.07,2.13,1.07Zm-1.07,5.31c.7,0,1.07-.17,1.07-.53,0-.35-.37-.53-1.07-.53s-1.06,.19-1.06,.53c0,.37,.35,.53,1.06,.53Zm3.19-7.44l-2.13-1.07,2.13,1.07Zm-1.07,38.26c.7,0,.88-.17,.53-.53-.37-.35-.9-.53-1.59-.53l1.06,1.06Zm4.25-19.13c-.71,0-1.07,.18-1.07,.53s.35,.53,1.07,.53v-1.06Zm3.19-42.52c-.71,0-.89,.18-.53,.53,.35,.37,.88,.53,1.59,.53s.88-.17,.53-.53c-.36-.35-.89-.53-1.59-.53Zm2.13-5.32c-.71,0-1.06,.19-1.06,.53,0,.37,.35,.53,1.06,.53v-1.07Zm1.07-2.13c.69,0,.88-.17,.53-.53-.36-.35-.89-.53-1.59-.53l1.07,1.06Zm4.25,0c0,.71-.53,1.43-1.59,2.13-1.06,.71-.53,1.07,1.59,1.07l2.13-1.07c-1.43,1.43-.71,2.13,2.13,2.13,0-1.41,.53-2.47,1.59-3.19,1.07-.7,.53-1.76-1.59-3.19l1.07-1.06c-1.43,0-1.96-.17-1.59-.53,.35-.35-.19-.88-1.6-1.59,0,.71-.18,1.25-.53,1.59-.37,.37,.17,.9,1.59,1.59-.71,1.43-.53,2.31,.53,2.66,1.06,.37-.19,.18-3.73-.53Zm3.19,31.89c-1.43-.7-2.13-1.23-2.13-1.59,0-.35-.71-.53-2.13-.53,0,3.55,1.41,4.25,4.25,2.13Zm-3.19-10.63c.7,0,.89,.18,.53,.53-.37,.37,.17,.53,1.59,.53l-2.13-1.06Zm27.64-7.45c.7-1.41-.36-2.13-3.19-2.13s-3.91-.69-3.19-2.12c2.12,0,3.53,.36,4.25,1.06,.7,.71,1.41,.71,2.13,0-.71-.7-.89-1.23-.53-1.59,.35-.35,.17-.88-.53-1.59-2.13,0-3.55-.35-4.25-1.07,1.41-1.41,2.13-2.83,2.13-4.25s1.06-2.82,3.19-4.25c-.71-.69-1.06-1.76-1.06-3.19h-3.19c-.71,0-1.43-.35-2.12-1.06,1.41,2.13,1.41,3.9,0,5.31-1.43,1.43-1.78,3.19-1.07,5.31-.71,.71-1.59,.9-2.66,.53-1.06-.35-.89,.18,.53,1.59-.71-.7-1.06-.35-1.06,1.07h-2.13c-1.43,.71-1.59,1.24-.53,1.59,1.07,.36,1.59,1.25,1.59,2.65-.71,.71-.71,2.49,0,5.32h-3.19c-1.43,1.43-1.25,1.77,.53,1.06,1.76-.7,2.29-.35,1.59,1.07-1.43,0-1.96,.36-1.59,1.06,.35,.71-.19,1.07-1.6,1.07,.7,0,1.07,.71,1.07,2.12-1.43-.69-2.84-1.06-4.25-1.06,0,1.43,.7,2.66,2.13,3.72,1.41,1.07,1.41,2.31,0,3.72-4.25-1.41-5.31-1.06-3.19,1.07s2.47,2.84,1.06,2.13c0,.71-.37,1.06-1.06,1.06,.69,1.43,.53,2.31-.53,2.66-1.07,.36-1.59,1.24-1.59,2.65-2.84-1.41-3.55-1.23-2.13,.53,1.41,1.78,1.06,2.31-1.07,1.59-.71,.71,0,1.78,2.13,3.19-1.43,1.43-2.49,2.12-3.19,2.12,2.13,.72,2.83,1.25,2.13,1.6-.71,.36,.35,.89,3.19,1.59,1.41-1.41,1.76-2.66,1.07-3.72-.71-1.07-1.07-2.29-1.07-3.72,1.41,.71,2.47,.89,3.19,.53,.69-.35,1.76-.53,3.19-.53-2.13-.7-3.19-1.23-3.19-1.6,0-.35-.37-.88-1.07-1.59,1.41,0,2.83,.37,4.25,1.07,0-1.41,.17-2.66,.53-3.72,.35-1.07,.53-2.29,.53-3.72v-8.51c0-1.41,1.07-2.29,3.19-2.66,2.13-.35,2.47-1.23,1.06-2.65,.7,.71,1.76,1.06,3.19,1.06h1.06c-.71-.7-1.43-1.06-2.13-1.06,1.41,0,1.95-.89,1.59-2.66-.36-1.76-1.25-2.29-2.65-1.59-.71,.71-.9,1.25-.53,1.59,.35,.37-.18,.53-1.59,.53,0-1.41,.69-2.83,2.13-4.25,.69,.71,2.13,1.06,4.25,1.06,.7-.69,2.13-.69,4.25,0Zm-25.51-23.39c2.13,1.43,2.29,2.13,.53,2.13s-.89,.37,2.66,1.07c2.82-2.13,4.25-4.25,4.25-6.38,0-4.25,.35-6.73,1.06-7.44-.71-1.41-.53-2.13,.53-2.13s.88-.7-.53-2.13c1.41,.71,2.29,.37,2.66-1.07,.35-1.41-.9-2.12-3.72-2.12-3.56,1.43-3.56,2.49,0,3.19,0,.71-.72,.89-2.13,.53-1.43-.35-1.78-.17-1.07,.53,1.41,1.43,1.59,2.49,.53,3.19-1.07,.71-1.96,1.77-2.66,3.19,1.41,1.43,2.48,2.13,3.19,2.13-2.84,.71-4.62,2.49-5.32,5.31Zm2.13,35.08c-.71,0-.89-.17-.53-.53,.35-.35-.19-.53-1.6-.53v1.06h2.13Zm-1.06-46.77c1.41-.69,2.13-.88,2.13-.53s-.37,.53-1.07,.53h-1.06Zm3.19,15.95v-1.06h-3.19v1.06h3.19Zm-2.13,12.76c0,.71,.35,1.43,1.07,2.13,0-.7-.37-1.41-1.07-2.13Zm1.07-40.4c-.71,0-.71,.37,0,1.07h1.06c.7,0,.88-.17,.53-.53-.37-.35-.9-.53-1.59-.53Zm6.37-3.19c-2.12,1.43-2.84,2.66-2.12,3.72,.69,1.06,.35,2.31-1.07,3.72,1.41,0,2.13,.18,2.13,.53s.7,.53,2.13,.53c1.41-2.83,2.13-6.38,2.13-10.63,1.41,0,2.13-.17,2.13-.53,0-.35-.71-.53-2.13-.53,0-.7,1.06-1.07,3.19-1.07v-1.06c-.71,0-1.77-.35-3.19-1.07,0,.71-.53,1.25-1.59,1.59-1.07,.37-.53,.9,1.59,1.6v1.06c-1.43-.7-1.96-.88-1.59-.53,.35,.37,.88,.53,1.59,.53,0,.71-.71,.89-2.13,.53-1.43-.35-1.78,.18-1.07,1.59h0Zm-2.12,82.91l2.12,1.07-2.12-1.07Zm1.06,2.13c.7,0,.88-.17,.53-.53-.37-.35-.9-.53-1.59-.53l1.06,1.06Zm0-89.29c-.71,0-.89,.18-.53,.53,.35,.36,.88,.53,1.59,.53l-1.06-1.07Zm0,40.39c-.71,0-.89,.19-.53,.53,.35,.37,.88,.53,1.59,.53l-1.06-1.07Zm0,45.71c-.71,0-.89,.18-.53,.53,.35,.36,.88,.53,1.59,.53l-1.06-1.06Zm1.06-42.52c1.41-.7,1.41-1.07,0-1.07-.71,0-.71,.37,0,1.07Zm3.19-10.63l-2.13-1.06,2.13,1.06Zm2.13-36.14c1.41,0,1.94-.17,1.59-.53-.37-.35-.9-.53-1.59-.53,.69,0,1.41-.35,2.13-1.06,.69,0,1.06-.17,1.06-.53,0-.35-.71-.53-2.13-.53,0,.71-.71,.9-2.13,.53-1.43-.35-2.13,.18-2.13,1.59h3.19v1.07c-1.43-.7-1.96-.88-1.59-.53,.35,.37,.17,.53-.53,.53,1.41,.71,1.94,.89,1.59,.53-.37-.35-.18-.53,.53-.53Zm-1.07,70.16c-.71,0-.89,.18-.53,.53,.35,.36,.88,.53,1.59,.53l-1.07-1.06Zm1.07,9.57c-.71,.71-.71,1.06,0,1.06s1.06-.35,1.06-1.06c-.71-.7-1.43-1.07-2.13-1.07s-.36,.37,1.07,1.07Zm-1.07-45.71l2.13,1.07-2.13-1.07Zm2.13-72.28c0-.69,.35-1.41,1.07-2.13s0-1.06-2.13-1.06v2.13c.69,0,.69,.18,0,.53-.71,.36-.37,.53,1.06,.53Zm-1.06,104.18l1.06,1.06-1.06-1.06Zm4.25-115.87c1.41-1.41,1.59-2.29,.53-2.65-1.06-.35-2.31-1.23-3.72-2.66,0,2.84,1.07,4.62,3.19,5.31Zm0,12.76l-2.13-1.07c.69,0,.88,.19,.53,.53-.36,.37,.17,.53,1.6,.53Zm-2.13,59.52h0Zm4.25-64.84c1.41-1.41,.35-2.12-3.19-2.12,0,.71,.35,1.06,1.07,1.06s1.06,.37,1.06,1.06h1.06Zm-3.19,55.28l2.13,1.07c0-.7-.71-1.07-2.13-1.07Zm1.07,5.31c.69,0,.88-.17,.53-.53-.36-.35-.89-.53-1.59-.53l1.07,1.06Zm25.5-14.88c1.41,0,1.77-.35,1.07-1.06-.71-.7-2.13-1.07-4.25-1.07v2.13c-3.55-.7-4.09-1.59-1.59-2.66,2.47-1.06,2.66-2.29,.53-3.72,.69-.69,1.06-2.13,1.06-4.25v-4.25c-.71,0-1.25-.17-1.59-.53-.37-.35-.89-.53-1.59-.53,1.41-.7,1.59-1.23,.53-1.59-1.06-.35-1.24-.88-.53-1.59,.7,0,1.41,.37,2.13,1.06,.69-1.41,.53-2.65-.53-3.72-1.07-1.06-2.31-.88-3.72,.53,0,2.84-.53,4.97-1.59,6.38-1.07,1.43-.9,3.19,.53,5.31-2.13,0-3.19,.37-3.19,1.06h3.19c-2.13,.71-3.02,1.78-2.65,3.19,.35,1.43-.19,2.13-1.59,2.13-.72,.71-.72,1.06,0,1.06s1.06,.37,1.06,1.07c0,1.43-.89,2.49-2.66,3.19-1.77,.71-1.95,1.78-.53,3.19,0-.69,.35-.69,1.06,0,0,.71,.35,1.07,1.07,1.07-1.43,0-2.13,.18-2.13,.53s-.71,.89-2.13,1.59c.7,.71,1.41,1.06,2.13,1.06h1.06c0,.71-.71,1.07-2.13,1.07s-1.77,.36-1.06,1.06h-4.25c.7,.71,1.41,1.07,2.13,1.07,.7,.71,1.41,1.06,2.13,1.06,.7,2.13-.37,3.9-3.19,5.31,1.41,0,2.48,.37,3.19,1.07-1.43,1.43-2.13,2.65-2.13,3.72s-.71,2.31-2.13,3.72v2.13c-2.13,1.43-1.78,2.49,1.06,3.19,1.41-2.82,2.48-4.6,3.19-5.31,0-2.13-.37-3.89-1.07-5.31,1.41,.71,2.48,1.24,3.19,1.59,.69,.37,1.76,.53,3.19,.53-2.13-2.13-3.19-4.25-3.19-6.38,0,.71,.69,1.06,2.13,1.06-1.43-1.41-.72-3.53,2.12-6.37-.71-.7-1.06-1.77-1.06-3.19s.7-2.13,2.13-2.13c0-.7-.18-1.41-.53-2.13-.36-.69-.53-1.41-.53-2.13,.7,0,1.07,.19,1.07,.53,0,.37,.35,.53,1.06,.53,1.41-.7,1.77-1.07,1.07-1.07s-1.07-.69-1.07-2.12h-2.13l2.13-2.13c1.41,0,2.13,.36,2.13,1.06s.7,1.07,2.13,1.07h2.13l1.07-1.07h2.12Zm-23.39-42.52l1.07,1.06-1.07-1.06Zm0,46.77l2.13,1.06-2.13-1.06Zm7.45-73.35c-2.13-.69-3.91-.88-5.32-.53-1.43,.36-.71,.89,2.13,1.59,0-.7,.35-1.07,1.07-1.07,0,.72,.7,1.07,2.13,1.07v-1.07Zm-1.07-4.25c-1.43,0-2.65,.18-3.72,.53-1.06,.37-.89,.9,.53,1.6,1.41,0,2.13-.17,2.13-.53s1.06-.17,3.19,.53c0-1.41-.71-2.13-2.13-2.13Zm-4.25,24.45c0,.71,.35,1.07,1.07,1.07l-1.07-1.07Zm2.13,6.38c-.71-.7-1.43-1.07-2.13-1.07v1.07h2.13Zm2.13-22.33l1.07-1.06h-3.19l-1.06,1.06h3.19Zm-2.13,97.8v1.07l1.07,1.06c0-1.41-.37-2.13-1.07-2.13Zm6.38-103.11c-.71,0-.89-.17-.53-.53,.35-.35-.18-.53-1.59-.53,0,.71,.7,1.06,2.13,1.06Zm2.13,24.45c0-1.41-.71-2.12-2.13-2.12,.7,0,.88,.18,.53,.53-.37,.37,.17,.9,1.59,1.59Zm2.13-37.2l-2.13-1.07,2.13,1.07Zm0,54.21c0,1.43-.53,2.49-1.59,3.19-1.07,.71,.17,1.43,3.72,2.13,0-2.13-.71-3.89-2.13-5.31Zm0-27.64c0-.7-.37-1.41-1.07-2.13,0,1.43,.35,2.13,1.07,2.13Zm-1.07,17.01c.7,.71,1.77,1.07,3.19,1.07,.7,2.13,0,3.9-2.13,5.31,2.13,0,3.01,.89,2.65,2.66-.36,1.77,.17,1.95,1.6,.53,.69-1.41,1.59-2.47,2.65-3.19,1.07-.7,.88-1.76-.53-3.19,2.12-1.41,2.82-2.29,2.12-2.66-.71-.35,0-.88,2.13-1.59-1.43,0-1.43-.7,0-2.13-2.13,0-3.19-.35-3.19-1.07h4.25c0-1.41-1.07-2.13-3.19-2.13,0-.69-.71-1.06-2.12-1.06s-1.96,.53-1.6,1.59c.35,1.07-.18,1.59-1.59,1.59,1.41,.71,1.59,1.43,.53,2.13-1.07,.71-1.25,1.43-.53,2.13h-4.25Zm3.19-36.14h0Zm2.13,2.13c-1.43,0-2.13,.36-2.13,1.06,1.41,0,2.13-.35,2.13-1.06Zm-1.07,23.39c-.71,1.43-.53,2.13,.53,2.13s1.23,.36,.53,1.06c3.53,0,5.31-.53,5.31-1.59s1.76-1.59,5.31-1.59c-4.97,0-6.21-.35-3.72-1.07,2.47-.7,3.36-1.76,2.66-3.19h-2.13v-1.07h1.06v-3.72c0-1.06-1.06-1.59-3.19-1.59,2.13-2.13,3.19-2.83,3.19-2.13,1.41-1.41,1.41-2.13,0-2.13-.71-.7-.89-1.23-.53-1.59,.35-.35-.19-.88-1.6-1.59-2.13,1.43-2.49,2.66-1.06,3.72,1.41,1.06,.7,1.96-2.13,2.66,0,1.43,.35,2.65,1.06,3.72,.7,1.06,.35,2.31-1.06,3.72,2.13,.71,1.95,1.25-.53,1.59-2.49,.37-3.37,.89-2.65,1.59,1.41,.71,2.47,1.07,3.19,1.07,0,1.43-.37,1.77-1.06,1.06-.71-.7-1.78-1.06-3.19-1.06Zm5.31-27.64c-2.12,2.13-1.43,3.19,2.13,3.19,0-2.13-.71-3.19-2.13-3.19Zm0,4.25c.7,0,.89-.17,.53-.53-.36-.35-.89-.53-1.59-.53l1.06,1.07Zm2.13-11.69l-2.13-1.07,2.13,1.07Zm3.19-2.13c-1.43,0-2.13-.17-2.13-.53,0-.35-.37-.53-1.07-.53,0,1.43,1.07,2.13,3.19,2.13v-1.06Zm-2.13-3.19v0Zm5.31,14.89c-3.55-.7-4.61-.35-3.19,1.06,1.41,1.43,2.47,1.43,3.19,0-.71,0-.71-.35,0-1.06Zm0,5.31h0Zm0,1.06h0Zm2.13-22.32c0,.71,.7,1.06,2.13,1.06l-2.13-1.06Z"/>
</svg>